<mxfile host="app.diagrams.net" modified="2023-08-29T18:05:53.414Z" agent="Mozilla/5.0 (Windows NT 10.0; Win64; x64) AppleWebKit/537.36 (KHTML, like Gecko) Chrome/116.0.0.0 Safari/537.36" etag="KqvcSggAEBHM5gqkG--D" version="21.6.9" type="device">
  <diagram name="PÃ¡gina-1" id="j3qzu3pRjIHkdhjBRrYu">
    <mxGraphModel dx="2261" dy="758" grid="1" gridSize="10" guides="1" tooltips="1" connect="1" arrows="1" fold="1" page="1" pageScale="1" pageWidth="827" pageHeight="1169" math="0" shadow="0">
      <root>
        <mxCell id="0" />
        <mxCell id="1" parent="0" />
        <mxCell id="Vg7qVwBk7_I4ppACNnBF-1" value="Answer a question. State machine diagram" style="text;strokeColor=none;fillColor=none;html=1;fontSize=24;fontStyle=1;verticalAlign=middle;align=center;" vertex="1" parent="1">
          <mxGeometry x="30" y="40" width="100" height="40" as="geometry" />
        </mxCell>
        <mxCell id="Vg7qVwBk7_I4ppACNnBF-2" value="Project: Educational assessment engine" style="text;align=center;fontStyle=1;verticalAlign=middle;spacingLeft=3;spacingRight=3;strokeColor=none;rotatable=0;points=[[0,0.5],[1,0.5]];portConstraint=eastwest;html=1;" vertex="1" parent="1">
          <mxGeometry x="-90" y="70" width="80" height="26" as="geometry" />
        </mxCell>
        <mxCell id="Vg7qVwBk7_I4ppACNnBF-3" style="edgeStyle=orthogonalEdgeStyle;rounded=0;orthogonalLoop=1;jettySize=auto;html=1;exitX=1;exitY=0.5;exitDx=0;exitDy=0;" edge="1" parent="1" source="Vg7qVwBk7_I4ppACNnBF-2" target="Vg7qVwBk7_I4ppACNnBF-2">
          <mxGeometry relative="1" as="geometry" />
        </mxCell>
        <mxCell id="Vg7qVwBk7_I4ppACNnBF-4" value="" style="ellipse;html=1;shape=endState;fillColor=#000000;strokeColor=#000000;" vertex="1" parent="1">
          <mxGeometry x="221" y="516" width="30" height="30" as="geometry" />
        </mxCell>
        <mxCell id="Vg7qVwBk7_I4ppACNnBF-5" value="" style="ellipse;html=1;shape=startState;fillColor=#000000;strokeColor=#000000;" vertex="1" parent="1">
          <mxGeometry x="-200" y="230" width="30" height="30" as="geometry" />
        </mxCell>
        <mxCell id="Vg7qVwBk7_I4ppACNnBF-6" value="" style="edgeStyle=orthogonalEdgeStyle;html=1;verticalAlign=bottom;endArrow=block;endSize=8;strokeColor=#000000;rounded=0;endFill=1;" edge="1" parent="1">
          <mxGeometry relative="1" as="geometry">
            <mxPoint x="-114" y="245" as="targetPoint" />
            <mxPoint x="-174" y="245" as="sourcePoint" />
          </mxGeometry>
        </mxCell>
        <mxCell id="Vg7qVwBk7_I4ppACNnBF-8" value="" style="endArrow=none;html=1;rounded=0;" edge="1" parent="1" target="Vg7qVwBk7_I4ppACNnBF-7">
          <mxGeometry width="50" height="50" relative="1" as="geometry">
            <mxPoint x="-110" y="244.5" as="sourcePoint" />
            <mxPoint x="40" y="244.5" as="targetPoint" />
          </mxGeometry>
        </mxCell>
        <mxCell id="Vg7qVwBk7_I4ppACNnBF-7" value="" style="rounded=1;whiteSpace=wrap;html=1;" vertex="1" parent="1">
          <mxGeometry x="-110" y="192.5" width="230" height="105" as="geometry" />
        </mxCell>
        <mxCell id="Vg7qVwBk7_I4ppACNnBF-9" value="" style="endArrow=none;html=1;rounded=0;entryX=1;entryY=0.5;entryDx=0;entryDy=0;strokeWidth=2;" edge="1" parent="1" target="Vg7qVwBk7_I4ppACNnBF-7">
          <mxGeometry width="50" height="50" relative="1" as="geometry">
            <mxPoint x="-110" y="244.5" as="sourcePoint" />
            <mxPoint x="100" y="244.5" as="targetPoint" />
          </mxGeometry>
        </mxCell>
        <mxCell id="Vg7qVwBk7_I4ppACNnBF-10" value="Waiting for answer" style="text;html=1;strokeColor=none;fillColor=none;align=center;verticalAlign=middle;whiteSpace=wrap;rounded=0;" vertex="1" parent="1">
          <mxGeometry x="-80" y="210" width="170" height="30" as="geometry" />
        </mxCell>
        <mxCell id="Vg7qVwBk7_I4ppACNnBF-11" value="disable_submit()" style="text;html=1;strokeColor=none;fillColor=none;align=center;verticalAlign=middle;whiteSpace=wrap;rounded=0;" vertex="1" parent="1">
          <mxGeometry x="-80" y="258" width="170" height="30" as="geometry" />
        </mxCell>
        <mxCell id="Vg7qVwBk7_I4ppACNnBF-12" value="" style="endArrow=none;html=1;rounded=0;" edge="1" parent="1" target="Vg7qVwBk7_I4ppACNnBF-13">
          <mxGeometry width="50" height="50" relative="1" as="geometry">
            <mxPoint x="370" y="244.5" as="sourcePoint" />
            <mxPoint x="520" y="244.5" as="targetPoint" />
          </mxGeometry>
        </mxCell>
        <mxCell id="Vg7qVwBk7_I4ppACNnBF-13" value="" style="rounded=1;whiteSpace=wrap;html=1;" vertex="1" parent="1">
          <mxGeometry x="370" y="192.5" width="230" height="105" as="geometry" />
        </mxCell>
        <mxCell id="Vg7qVwBk7_I4ppACNnBF-14" value="" style="endArrow=none;html=1;rounded=0;entryX=1;entryY=0.5;entryDx=0;entryDy=0;strokeWidth=2;" edge="1" parent="1" target="Vg7qVwBk7_I4ppACNnBF-13">
          <mxGeometry width="50" height="50" relative="1" as="geometry">
            <mxPoint x="370" y="244.5" as="sourcePoint" />
            <mxPoint x="580" y="244.5" as="targetPoint" />
          </mxGeometry>
        </mxCell>
        <mxCell id="Vg7qVwBk7_I4ppACNnBF-15" value="Answer chosen" style="text;html=1;strokeColor=none;fillColor=none;align=center;verticalAlign=middle;whiteSpace=wrap;rounded=0;" vertex="1" parent="1">
          <mxGeometry x="400" y="210" width="170" height="30" as="geometry" />
        </mxCell>
        <mxCell id="Vg7qVwBk7_I4ppACNnBF-16" value="enable_submit()" style="text;html=1;strokeColor=none;fillColor=none;align=center;verticalAlign=middle;whiteSpace=wrap;rounded=0;" vertex="1" parent="1">
          <mxGeometry x="400" y="258" width="170" height="30" as="geometry" />
        </mxCell>
        <mxCell id="Vg7qVwBk7_I4ppACNnBF-17" value="" style="edgeStyle=orthogonalEdgeStyle;html=1;verticalAlign=bottom;endArrow=block;endSize=8;strokeColor=#000000;rounded=0;endFill=1;exitX=1;exitY=0.548;exitDx=0;exitDy=0;exitPerimeter=0;" edge="1" parent="1" source="Vg7qVwBk7_I4ppACNnBF-7">
          <mxGeometry relative="1" as="geometry">
            <mxPoint x="370" y="250" as="targetPoint" />
            <mxPoint x="130" y="250.5" as="sourcePoint" />
          </mxGeometry>
        </mxCell>
        <mxCell id="Vg7qVwBk7_I4ppACNnBF-20" value="" style="edgeStyle=orthogonalEdgeStyle;html=1;verticalAlign=bottom;endArrow=block;endSize=8;strokeColor=#000000;rounded=0;endFill=1;" edge="1" parent="1">
          <mxGeometry relative="1" as="geometry">
            <mxPoint x="121" y="280" as="targetPoint" />
            <mxPoint x="367" y="280" as="sourcePoint" />
          </mxGeometry>
        </mxCell>
        <mxCell id="Vg7qVwBk7_I4ppACNnBF-23" value="Checkbox is set" style="text;html=1;strokeColor=none;fillColor=none;align=center;verticalAlign=middle;whiteSpace=wrap;rounded=0;" vertex="1" parent="1">
          <mxGeometry x="130" y="226" width="190" height="30" as="geometry" />
        </mxCell>
        <mxCell id="Vg7qVwBk7_I4ppACNnBF-24" value="Checkbox is unset" style="text;html=1;strokeColor=none;fillColor=none;align=center;verticalAlign=middle;whiteSpace=wrap;rounded=0;" vertex="1" parent="1">
          <mxGeometry x="137" y="276" width="190" height="30" as="geometry" />
        </mxCell>
        <mxCell id="Vg7qVwBk7_I4ppACNnBF-25" value="" style="endArrow=block;html=1;rounded=0;endFill=1;" edge="1" parent="1">
          <mxGeometry width="50" height="50" relative="1" as="geometry">
            <mxPoint x="500" y="297.5" as="sourcePoint" />
            <mxPoint x="500" y="500" as="targetPoint" />
          </mxGeometry>
        </mxCell>
        <mxCell id="Vg7qVwBk7_I4ppACNnBF-26" value="&lt;font style=&quot;font-size: 12px;&quot;&gt;Submit button is pushed&lt;/font&gt;" style="edgeLabel;html=1;align=center;verticalAlign=middle;resizable=0;points=[];" vertex="1" connectable="0" parent="Vg7qVwBk7_I4ppACNnBF-25">
          <mxGeometry x="-0.0469" y="1" relative="1" as="geometry">
            <mxPoint as="offset" />
          </mxGeometry>
        </mxCell>
        <mxCell id="Vg7qVwBk7_I4ppACNnBF-27" value="Answer Confirmed" style="rounded=1;whiteSpace=wrap;html=1;" vertex="1" parent="1">
          <mxGeometry x="390" y="501" width="210" height="60" as="geometry" />
        </mxCell>
        <mxCell id="Vg7qVwBk7_I4ppACNnBF-29" value="" style="endArrow=block;html=1;rounded=0;endFill=1;" edge="1" parent="1">
          <mxGeometry width="50" height="50" relative="1" as="geometry">
            <mxPoint x="390" y="530.5" as="sourcePoint" />
            <mxPoint x="250" y="530.5" as="targetPoint" />
          </mxGeometry>
        </mxCell>
      </root>
    </mxGraphModel>
  </diagram>
</mxfile>
